# ProBuilder 4.2.3
# https://unity3d.com/unity/features/worldbuilding/probuilder
# 29/05/2020 12:07:26

mtllib ./wire.mtl
o wire

g wire
v -0.025 0 0
v -0.025 1 0
v -0.0125 0 0.02165064
v -0.0125 1 0.02165064
v 0.0125 0 0.02165063
v 0.0125 1 0.02165063
v 0.025 0 -2.18557E-09
v 0.025 1 -2.18557E-09
v 0.0125 0 -0.02165064
v 0.0125 1 -0.02165064
v -0.0125 0 -0.02165064
v -0.0125 1 -0.02165064
v 0 0 0
v 0 1 0

vt -0.0125 0
vt -0.0125 1
vt 0.0125 0
vt 0.0125 1
vt -0.0125 0
vt -0.0125 1
vt 0.0125 0
vt 0.0125 1
vt -0.025 0
vt 0 0
vt -0.0125 0.02165064
vt 0.025 0
vt 0.0125 0.02165064
vt 0.0125 0.02165063
vt -0.0125 0.02165063
vt 0.0125 -0.02165064
vt -0.0125 -0.02165064

vn -1 0 -3.441276E-08
vn -0.5 0 0.8660254
vn 0.5000001 0 0.8660254
vn 1 0 -8.603189E-08
vn 0.5 0 -0.8660254
vn -0.5 0 -0.8660254
vn 0 -1 0
vn 0 1 0

usemtl cmn_metal_ms_wire_dif
f 1/9/7 13/10/7 3/11/7
f 3/11/7 13/10/7 5/14/7
f 5/14/7 13/10/7 7/12/7
f 7/12/7 13/10/7 9/16/7
f 9/16/7 13/10/7 11/17/7
f 11/17/7 13/10/7 1/9/7
f 4/13/8 14/10/8 2/12/8
f 6/15/8 14/10/8 4/13/8
f 8/9/8 14/10/8 6/15/8
f 10/17/8 14/10/8 8/9/8
f 12/16/8 14/10/8 10/17/8
f 2/12/8 14/10/8 12/16/8
f 4/4/2 2/2/1 1/1/1
f 1/1/1 3/3/2 4/4/2
f 6/8/3 4/6/2 3/5/2
f 3/5/2 5/7/3 6/8/3
f 8/4/4 6/2/3 5/1/3
f 5/1/3 7/3/4 8/4/4
f 10/4/5 8/6/4 7/5/4
f 7/5/4 9/3/5 10/4/5
f 12/8/6 10/2/5 9/1/5
f 9/1/5 11/7/6 12/8/6
f 2/4/1 12/6/6 11/5/6
f 11/5/6 1/3/1 2/4/1

